<?xml version="1.0" standalone="no"?><!DOCTYPE svg PUBLIC "-//W3C//DTD SVG 1.1//EN" "http://www.w3.org/Graphics/SVG/1.1/DTD/svg11.dtd"><svg t="1621174023867" class="icon" viewBox="0 0 1024 1024" version="1.1" xmlns="http://www.w3.org/2000/svg" p-id="19323" xmlns:xlink="http://www.w3.org/1999/xlink" width="200" height="200"><defs><style type="text/css"></style></defs><path d="M785.8176 953.9072H242.9952c-84.0192 0-150.1696-71.68-143.4112-155.4432l32.1536-399.2576c6.0416-74.752 68.4544-132.352 143.4112-132.352h478.5152c75.008 0 137.4208 57.6 143.4112 132.352l32.1536 399.2576c6.7584 83.7632-59.392 155.4432-143.4112 155.4432z" fill="#FFAC3E" p-id="19324"></path><path d="M731.0848 476.5184c-22.272 0-40.3456-18.0736-40.3456-40.3456V313.856c0-94.4128-79.104-171.2128-176.3328-171.2128s-176.3328 76.8-176.3328 171.2128v122.368c0 22.272-18.0736 40.3456-40.3456 40.3456s-40.3456-18.0736-40.3456-40.3456V313.856c0-138.9056 115.3024-251.904 257.024-251.904 141.7216 0 257.024 112.9984 257.024 251.904v122.368c0 22.272-18.0736 40.2944-40.3456 40.2944z" fill="#FFAC3E" p-id="19325"></path><path d="M683.9808 266.9056c4.4032 14.9504 6.8096 30.6688 6.8096 46.9504v122.368c0 22.272 18.0736 40.3456 40.3456 40.3456s40.3456-18.0736 40.3456-40.3456V313.856c0-15.8208-1.5872-31.3344-4.4544-46.336-4.4032-0.4096-8.8576-0.6144-13.3632-0.6144h-69.6832zM297.728 476.5184c22.272 0 40.3456-18.0736 40.3456-40.3456V313.856c0-16.2816 2.4064-32.0512 6.8096-46.9504H275.1488c-4.5056 0-8.96 0.2048-13.3632 0.6144-2.8672 15.0528-4.4544 30.5152-4.4544 46.336v122.368a40.39168 40.39168 0 0 0 40.3968 40.2944z" fill="#FF7C0E" p-id="19326"></path><path d="M698.7264 800.6144h-368.64c-22.6304 0-40.96-18.3296-40.96-40.96s18.3296-40.96 40.96-40.96h368.64c22.6304 0 40.96 18.3296 40.96 40.96s-18.3296 40.96-40.96 40.96z" fill="#FFFFFF" p-id="19327"></path></svg>