<?xml version="1.0" standalone="no"?><!DOCTYPE svg PUBLIC "-//W3C//DTD SVG 1.1//EN" "http://www.w3.org/Graphics/SVG/1.1/DTD/svg11.dtd"><svg t="1621174509913" class="icon" viewBox="0 0 1024 1024" version="1.1" xmlns="http://www.w3.org/2000/svg" p-id="19975" xmlns:xlink="http://www.w3.org/1999/xlink" width="200" height="200"><defs><style type="text/css"></style></defs><path d="M465.5616 299.776m-212.3264 0a212.3264 212.3264 0 1 0 424.6528 0 212.3264 212.3264 0 1 0-424.6528 0Z" fill="#80B7F9" p-id="19976"></path><path d="M543.232 477.3888H387.9424c-188.416 0-341.1456 152.7296-341.1456 341.1456v14.6944c0 54.1184 43.8784 97.9968 97.9968 97.9968h641.536c54.1184 0 97.9968-43.8784 97.9968-97.9968v-14.6944c0-188.416-152.6784-341.1456-341.0944-341.1456z" fill="#80B7F9" p-id="19977"></path><path d="M352.256 479.232a211.3792 211.3792 0 0 0 113.3056 32.8192c41.6768 0 80.5376-12.0832 113.3568-32.8192-11.7248-1.2288-23.6544-1.8432-35.6864-1.8432H387.9424c-12.0832 0-23.9616 0.6144-35.6864 1.8432z" fill="#3E8BF8" p-id="19978"></path><path d="M827.648 524.6976h-158.2592c-23.7568 0-45.6704 12.6464-57.5488 33.2288l-79.1552 137.0624a66.42176 66.42176 0 0 0 0 66.4576l79.1552 137.0624a66.4576 66.4576 0 0 0 57.5488 33.2288h158.2592c23.7568 0 45.6704-12.6464 57.5488-33.2288l79.1552-137.0624c11.8784-20.5824 11.8784-45.9264 0-66.4576l-79.1552-137.0624a66.5088 66.5088 0 0 0-57.5488-33.2288z" fill="#95C9FC" p-id="19979"></path><path d="M716.544 524.6976h-47.1552c-23.7568 0-45.6704 12.6464-57.5488 33.2288l-79.1552 137.0624a66.42176 66.42176 0 0 0 0 66.4576l79.1552 137.0624c10.3936 17.9712 28.4672 29.9008 48.6912 32.6656h125.8496c54.1184 0 97.9968-43.8784 97.9968-97.9968v-14.6944c-0.0512-125.0816-67.4304-234.3936-167.8336-293.7856z" fill="#3E8BF8" p-id="19980"></path><path d="M753.408 831.3856c-56.9856 0-103.3216-46.336-103.3216-103.3216s46.336-103.3216 103.3216-103.3216c56.9856 0 103.3216 46.336 103.3216 103.3216s-46.336 103.3216-103.3216 103.3216z m0-134.9632c-17.4592 0-31.6416 14.1824-31.6416 31.6416s14.1824 31.6416 31.6416 31.6416c17.4592 0 31.6416-14.1824 31.6416-31.6416s-14.1824-31.6416-31.6416-31.6416z" fill="#FFFFFF" p-id="19981"></path></svg>