<?xml version="1.0" standalone="no"?><!DOCTYPE svg PUBLIC "-//W3C//DTD SVG 1.1//EN" "http://www.w3.org/Graphics/SVG/1.1/DTD/svg11.dtd"><svg t="1621174131069" class="icon" viewBox="0 0 1024 1024" version="1.1" xmlns="http://www.w3.org/2000/svg" p-id="19465" xmlns:xlink="http://www.w3.org/1999/xlink" width="200" height="200"><defs><style type="text/css"></style></defs><path d="M749.3632 948.8896H210.688c-73.5232 0-133.12-59.5968-133.12-133.12V276.3776c0-73.5232 59.5968-133.12 133.12-133.12h538.6752c73.5232 0 133.12 59.5968 133.12 133.12v539.3408c0 73.5744-59.5968 133.1712-133.12 133.1712z" fill="#F85F69" p-id="19466"></path><path d="M566.8352 593.6128l-123.136 44.032c-31.8976 11.4176-52.3264-9.8304-40.5504-42.0864l43.52-119.6544c3.584-9.8816 9.9328-19.712 18.1248-28.1088l336.6912-353.6384c21.9136-22.528 46.1824-24.32 60.5696-10.3424l78.6944 76.544c14.3872 13.9776 13.3632 38.4512-8.5504 60.9792l-335.7696 352.7168c-8.8064 8.9088-19.2 15.8208-29.5936 19.5584z" fill="#F85F69" p-id="19467"></path><path d="M755.0976 143.36L464.7424 447.744c-8.192 8.3968-14.4896 18.2272-18.1248 28.1088l-43.52 119.6544c-11.7248 32.3072 8.704 53.504 40.5504 42.0864l123.136-44.032c10.4448-3.7376 20.8384-10.5984 29.5936-19.6096l285.952-299.8784c-0.2048-70.912-56.7296-128.6144-127.232-130.7136z" fill="#F33B3D" p-id="19468"></path><path d="M640.5632 790.7328H319.488c-19.8144 0-35.84-16.0256-35.84-35.84s16.0256-35.84 35.84-35.84h321.0752c19.8144 0 35.84 16.0256 35.84 35.84s-16.0256 35.84-35.84 35.84z" fill="#FFFFFF" p-id="19469"></path></svg>