<?xml version="1.0" standalone="no"?><!DOCTYPE svg PUBLIC "-//W3C//DTD SVG 1.1//EN" "http://www.w3.org/Graphics/SVG/1.1/DTD/svg11.dtd"><svg t="1621334000148" class="icon" viewBox="0 0 1024 1024" version="1.1" xmlns="http://www.w3.org/2000/svg" p-id="19464" xmlns:xlink="http://www.w3.org/1999/xlink" width="200" height="200"><defs><style type="text/css"></style></defs><path d="M859.6992 736c-18.7392 0-33.9456-15.2064-33.9456-33.9456V446.1568c0-141.056-93.2352-260.3008-221.44-299.52 0.0512-1.28 0.2048-2.56 0.2048-3.84 0-50.7904-41.1648-91.9552-91.9552-91.9552-50.7904 0-91.9552 41.1648-91.9552 91.9552 0 1.28 0.1536 2.56 0.2048 3.84-128.2048 39.2192-221.44 158.464-221.44 299.52v255.9488c0 18.7392-15.2064 33.9456-33.9456 33.9456-23.5008 0-43.9808 17.7152-45.5168 41.1648-1.6384 25.7024 18.688 47.0528 43.9808 47.0528h697.344c25.344 0 45.6704-21.3504 43.9808-47.0528-1.4848-23.4496-22.016-41.216-45.5168-41.216z" fill="#FFAC3E" p-id="19465"></path><path d="M519.4752 824.7296m-143.2576 0a143.2576 143.2576 0 1 0 286.5152 0 143.2576 143.2576 0 1 0-286.5152 0Z" fill="#FFB357" p-id="19466"></path><path d="M662.6816 824.2176c-0.256-78.8992-64.3072-142.7456-143.2064-142.7456s-142.9504 63.8464-143.2064 142.7456h286.4128z" fill="#FF7C0E" p-id="19467"></path></svg>